<?xml version="1.0" encoding="utf-8"?>
<!-- Generator: Adobe Illustrator 23.1.1, SVG Export Plug-In . SVG Version: 6.00 Build 0)  -->
<svg version="1.1" id="Layer_1" xmlns="http://www.w3.org/2000/svg" xmlns:xlink="http://www.w3.org/1999/xlink" x="0px" y="0px"
	 viewBox="0 0 514.6 120.8" style="enable-background:new 0 0 514.6 120.8;" xml:space="preserve">
<style type="text/css">
	.st0{fill:#575756;}
	.st1{fill-rule:evenodd;clip-rule:evenodd;fill:#00A75D;}
	.st2{fill-rule:evenodd;clip-rule:evenodd;fill:#FDE900;}
	.st3{fill:#00A75D;}
</style>
<g>
	<g>
		<path class="st0" d="M148.9,80.6c0,12.1-10.3,19.7-25.7,19.7H95.4c-3.2,0-5.1-1.8-5.1-5.1V35.1c0-3.2,1.8-5.1,5.1-5.1H121
			c14.4,0,23.6,7.3,23.6,18.5c0,6.5-3.5,11.5-8.9,14.3C142.4,65.3,148.9,70.9,148.9,80.6z M130.2,78.5c0-4.9-3.9-8.1-9.7-8.1h-11
			l-0.1,16.2h10.8C126.4,86.6,130.2,83.4,130.2,78.5z M109.6,43.8l-0.1,14.8h8.6c5.2,0,8.4-2.8,8.4-7.4c0-4.6-3.2-7.5-8.4-7.5H109.6
			z"/>
		<path class="st0" d="M230.3,50.7l-2.1,8.1c-0.9,3-2.7,3.7-4.5,2.9c-1.7-0.5-3.8-1.1-5.6-1.1c-6.4,0-9.8,4.2-9.8,10.6v24.1
			c0,3.1-1.7,5-4.9,5h-9c-3.1,0-4.9-1.8-4.9-5V50.7c0-3.1,1.7-5,4.9-5h5.7c3.1,0,4.9,1.8,4.9,5v2.6c3.8-5.3,8.9-8.4,14.8-8.4
			c2.9,0,5.5,0.4,7.8,1.2C229.4,46.7,231.2,47.5,230.3,50.7z"/>
		<path class="st0" d="M266.5,94c-2.5-2.3-3-4.3-0.4-7.2l2.6-3.1c2.5-3,4.9-2.2,7.2-0.5c3.7,2.7,8.4,4.8,13.4,4.8
			c3.2,0,5.1-1.2,5.1-3.2c0-2.6-3.4-3.8-6.8-5c-9.6-2.9-20.4-6.4-20.4-17.8c0-10.5,8.6-17.1,22.2-17.1c7.8,0,16.1,2.7,19.9,5.9
			c2.5,2.2,2.9,4.1,0.3,7.4l-2.3,2.8c-1.8,2.4-4.4,2.4-6.9,0.9c-3-2.2-6.5-3.6-10.8-3.6c-3,0-4.8,1.2-4.8,2.9c0,2.7,5,3.6,11.8,6.1
			c8.9,3.5,15.5,7.9,15.5,17.3c0,10.9-9.3,17.4-22.8,17.4C279.7,101.8,270.8,98,266.5,94z"/>
		<path class="st0" d="M376.4,68.4v26.9c0,3.1-1.7,5-5,5h-8.9c-3.1,0-4.9-1.8-4.9-5V69.8c0-5.4-3.2-9.1-8.6-9.1
			c-5.3,0-8.6,3.7-8.6,9.1v25.5c0,3.1-1.8,5-5,5h-8.8c-3.1,0-4.9-1.8-4.9-5V29.8c0-3.1,1.7-4.4,4.9-5l8.6-1.6c3.2-0.4,5.1,1.7,5.1,5
			v21.3c3.5-2.8,7.9-4.6,13.5-4.6C367.1,44.8,376.4,54,376.4,68.4z"/>
		<path class="st0" d="M385.3,73.3c0-16.3,12.6-28.4,30.2-28.4c17.5,0,30.2,12.1,30.2,28.4s-12.6,28.4-30.2,28.4
			C397.9,101.7,385.3,89.6,385.3,73.3z M427.1,73.3c0-7.1-4.9-12.4-11.7-12.4c-6.8,0-11.8,5.3-11.8,12.4c0,7.1,5,12.4,11.8,12.4
			C422.3,85.7,427.1,80.4,427.1,73.3z"/>
		<path class="st0" d="M514.6,73.3c0,15.9-11.3,28.4-27,28.4c-5.2,0-9.8-1.4-13.7-3.9v18.1c0,3.1-1.7,5-4.9,5h-9
			c-3.1,0-4.9-1.8-4.9-5V50.7c0-3.1,1.7-5,4.9-5h5.3c3.1,0,4.9,1.8,4.9,5v0.8c4.6-4,10.6-6.6,17.4-6.6
			C503.1,44.8,514.6,57.3,514.6,73.3z M496.1,73.3c0-7-4.8-12.4-11.7-12.4c-6.5,0-11.6,4.9-11.6,12.4c0,7.6,5.1,12.4,11.6,12.4
			C491.3,85.7,496.1,80.3,496.1,73.3z"/>
		<path class="st0" d="M236.8,95V52.5c0-3.1,1.7-4.4,5-5l8.8-1.7c3.2-0.6,5.1,1.7,5.1,5V95c0,3.1-1.8,5-5,5h-8.9
			C238.5,100,236.8,98.2,236.8,95z"/>
		<path class="st0" d="M158.2,95V52.5c0-3.1,1.7-4.4,5-5l8.8-1.7c3.2-0.6,5.1,1.7,5.1,5V95c0,3.1-1.8,5-5,5h-8.9
			C159.9,100,158.2,98.2,158.2,95z"/>
		<path class="st0" d="M177,35v0.2c0,3.1-1.7,4.4-5,5l-8.8,1.7c-3.2,0.6-5.1-1.7-5.1-5V35c0-3.1,1.8-5,5-5h8.9
			C175.3,30,177,31.9,177,35z"/>
		<path class="st0" d="M255.6,35v0.2c0,3.1-1.7,4.4-5,5l-8.8,1.7c-3.2,0.6-5.1-1.7-5.1-5V35c0-3.1,1.8-5,5-5h8.9
			C253.9,30,255.6,31.9,255.6,35z"/>
	</g>
	<path id="XMLID_70_" class="st1" d="M2.2,31H19c-10.6,19.8-5.5,31.9,9.5,39.2C17,69.5,8.1,63.4,2.2,50.8V31L2.2,31z M23.1,31
		c-3.5,5.3-5.7,11.2-6.1,17.3c18.2-16.2,33.5-17.9,50.3,0.6V31H23.1L23.1,31z M67.3,58.3v19.8H50.2c9.2-16.8,8.6-30.1-9.6-39.1
		C53.3,38.9,62.5,47,67.3,58.3L67.3,58.3z M46.2,78.1c3.6-5.5,5.6-11.4,6-17.7C36.1,76.3,19.5,79.1,2.2,60.1v18H46.2z"/>
	<path id="XMLID_47_" class="st2" d="M50.3,50.9c-3.2-4.1-7.1-7.5-12.3-9.9c-2.4-1-4.5-1-6.8,0c-5.2,2.4-9.1,5.8-12.3,9.9
		c-1.9,2.2-1.9,5.3,0,7.5c3.2,4.1,7.1,7.5,12.3,9.9c2.4,1,4.5,1,6.8,0c5.2-2.4,9.1-5.8,12.3-9.9C52.2,56.2,52.2,53.2,50.3,50.9z"/>
	<g>
		<path class="st1" d="M58.3,90.9c-0.3-0.1-1.1-0.2-2.2-0.2h-2v3.3h2.3c0.9,0,1.5,0,1.7-0.1c0.4-0.1,0.7-0.2,0.9-0.5
			c0.2-0.3,0.4-0.6,0.4-1.1c0-0.4-0.1-0.7-0.3-1C58.9,91.2,58.6,91,58.3,90.9z"/>
		<path class="st1" d="M2.2,81.3v18.3H67V81.3H2.2z M17,96.2L16,93.4h-5l-1,2.8H7.3l4.8-12.4h2.7l5,12.4H17z M34,95.4
			c-0.9,0.7-2,1-3.3,1c-1.7,0-3-0.6-4.1-1.7C25.5,93.6,25,92,25,90.1c0-2.1,0.5-3.7,1.6-4.8c1.1-1.1,2.5-1.7,4.2-1.7
			c1.5,0,2.8,0.5,3.7,1.4c0.6,0.5,1,1.3,1.3,2.3l-2.5,0.6c-0.1-0.6-0.5-1.2-0.9-1.5c-0.5-0.4-1-0.6-1.7-0.6c-0.9,0-1.7,0.3-2.2,1
			c-0.6,0.7-0.9,1.7-0.9,3.2c0,1.6,0.3,2.7,0.8,3.4c0.6,0.7,1.3,1,2.2,1c0.7,0,1.2-0.2,1.7-0.6c0.5-0.4,0.8-1.1,1-2l2.4,0.7
			C35.5,93.7,34.8,94.7,34,95.4z M44.8,96.2h-2.5V83.7h2.5V96.2z M61.5,94.2c-0.3,0.5-0.6,1-1.1,1.3c-0.5,0.3-1,0.5-1.7,0.6
			c-0.4,0-1.4,0.1-3,0.1h-4.2V83.7h5c1,0,1.7,0,2.2,0.1c0.5,0.1,0.9,0.3,1.3,0.5c0.4,0.3,0.7,0.6,1,1c0.3,0.4,0.4,0.9,0.4,1.5
			c0,0.6-0.2,1.1-0.5,1.6c-0.3,0.5-0.7,0.8-1.3,1.1c0.8,0.2,1.3,0.6,1.7,1.1c0.4,0.5,0.6,1.2,0.6,1.9C61.9,93.1,61.8,93.7,61.5,94.2
			z"/>
		<path class="st1" d="M57.5,88.6c0.4,0,0.8-0.2,1-0.4c0.2-0.2,0.4-0.6,0.4-1c0-0.4-0.1-0.7-0.3-0.9c-0.2-0.2-0.5-0.4-0.9-0.4
			c-0.2,0-1,0-2.1,0H54v2.9h1.6C56.7,88.7,57.3,88.7,57.5,88.6z"/>
		<polygon class="st1" points="11.7,91.2 15.2,91.2 13.4,86.6 		"/>
	</g>
	<g>
		<path class="st3" d="M9,7.4C6.6,18.5,23,24.4,33.2,26.5c0.1-0.8,0.2-1.6,0.4-2.4c0.8-5.2,0.6-12.3-2.5-17.4
			C26.2-1.5,11.2-3.2,9,7.4z M30.4,20.6c-0.3,0.8-14.1-8-14.1-12.6c-0.1-8,10.9-4.9,13.3,1.2C30.8,12.3,31.5,17.8,30.4,20.6z"/>
		<path class="st3" d="M26,26.1c-5.7-1.4-11.4-3.3-16.7-5.5l-7.2-2.9L5.3,23L0,25.8c0,0,5.3,0.6,6.9,0.8c7.6,0.8,15.3,1,22.9,0.8
			l3.1-0.1l-0.5-0.1C30.3,27,28.1,26.6,26,26.1z"/>
		<path class="st3" d="M60.5,7.4C58.2-3.2,43.2-1.5,38.3,6.7c-3,5.1-3.3,12.1-2.5,17.4c0.1,0.8,0.2,1.6,0.4,2.4
			C46.4,24.4,62.8,18.5,60.5,7.4z M39,20.6c-1.1-2.8-0.4-8.3,0.8-11.4C42.2,3.1,53.1,0,53.1,8C53,12.7,39.3,21.5,39,20.6z"/>
		<path class="st3" d="M62.5,26.6c1.6-0.2,6.9-0.8,6.9-0.8L64.1,23l3.2-5.4l-7.2,2.9c-5.3,2.2-11,4.1-16.7,5.5
			c-2.1,0.5-4.3,0.9-6.5,1.2l-0.5,0.1l3.1,0.1C47.2,27.6,54.9,27.4,62.5,26.6z"/>
	</g>
</g>
</svg>
